<?xml version="1.0" standalone="no"?>
<!DOCTYPE svg PUBLIC "-//W3C//DTD SVG 20010904//EN"
 "http://www.w3.org/TR/2001/REC-SVG-20010904/DTD/svg10.dtd">
<svg version="1.0" xmlns="http://www.w3.org/2000/svg"
 width="1024.000000pt" height="1024.000000pt" viewBox="0 0 1024.000000 1024.000000"
 preserveAspectRatio="xMidYMid meet">

<g transform="translate(0.000000,1024.000000) scale(0.100000,-0.100000)"
fill="#000000" stroke="none">
<path d="M5025 7113 c-233 -31 -444 -216 -510 -448 -11 -36 -31 -74 -51 -97
-18 -20 -37 -54 -43 -75 -7 -23 -11 -160 -11 -348 0 -343 2 -351 69 -427 l31
-36 0 -344 c0 -320 1 -349 20 -404 42 -122 151 -247 270 -310 l55 -29 225 -3
c149 -3 244 0 280 8 141 31 261 133 337 287 l48 96 3 350 2 350 30 46 c17 25
35 61 41 81 6 22 9 157 7 367 l-3 332 -41 43 c-28 29 -45 59 -54 93 -7 28 -27
82 -45 120 -110 241 -383 385 -660 348z m280 -381 c90 -42 136 -81 184 -153
81 -122 81 -119 81 -738 0 -592 -1 -600 -56 -701 -34 -63 -125 -149 -189 -179
-179 -84 -370 -58 -510 71 -65 59 -100 114 -126 199 -18 56 -19 100 -19 608 0
583 1 594 50 692 27 52 103 132 160 169 83 54 151 71 261 67 83 -3 106 -8 164
-35z"/>
<path d="M5023 6705 c-119 -33 -199 -98 -254 -207 l-33 -63 -9 -385 c-4 -212
-6 -475 -5 -585 l4 -200 33 -70 c79 -162 235 -245 418 -223 177 21 303 145
332 328 14 86 15 1028 1 1101 -24 125 -124 246 -237 289 -75 28 -182 35 -250
15z m140 -306 c50 -14 113 -71 128 -116 19 -59 7 -137 -28 -181 -16 -20 -40
-42 -51 -48 -12 -6 -19 -13 -16 -16 8 -9 -58 -18 -95 -13 -19 2 -38 10 -43 17
-4 7 -8 9 -8 4 0 -5 -18 9 -40 31 -21 22 -42 39 -45 37 -3 -2 -3 -1 -1 2 3 3
-4 28 -14 54 -15 39 -17 55 -8 86 19 69 47 103 113 134 47 23 57 24 108 9z
m-9 -760 c32 -25 34 -64 4 -96 -27 -29 -55 -29 -85 -1 -31 29 -30 71 3 97 15
12 32 21 39 21 7 0 24 -9 39 -21z m11 -364 c14 -13 25 -33 25 -44 0 -20 -53
-71 -73 -71 -33 1 -80 65 -67 91 29 54 76 64 115 24z"/>
<path d="M6090 6976 l0 -136 120 0 120 0 0 130 0 130 -67 0 c-38 0 -92 3 -120
6 l-53 7 0 -137z m190 35 c0 -18 -5 -19 -72 -14 -81 6 -83 7 -73 22 3 6 37 11
76 11 62 0 69 -2 69 -19z m0 -97 c0 -11 -16 -14 -70 -14 -60 0 -70 3 -70 18 0
15 9 17 70 14 52 -3 70 -7 70 -18z"/>
<path d="M3793 6986 c-27 -24 -27 -25 -10 -44 12 -13 16 -28 12 -41 -5 -18 -2
-21 24 -21 25 0 31 4 31 22 0 12 7 29 15 38 13 14 12 19 -11 43 -14 15 -27 27
-29 27 -2 0 -16 -11 -32 -24z m40 -32 c-3 -8 -9 -14 -13 -14 -13 0 -22 19 -15
30 9 14 34 0 28 -16z"/>
<path d="M4070 6805 l0 -75 69 0 c38 0 76 -3 85 -6 14 -5 16 5 16 75 l0 81
-85 0 -85 0 0 -75z m140 -4 c0 -28 -15 -34 -66 -26 -35 5 -44 10 -44 26 0 16
7 19 55 19 48 0 55 -3 55 -19z"/>
<path d="M6078 6535 c-10 -22 -9 -29 10 -48 17 -17 26 -19 39 -11 46 29 40 76
-10 82 -21 3 -30 -3 -39 -23z"/>
<path d="M4124 6366 c-36 -16 -44 -32 -44 -87 0 -71 69 -116 130 -84 113 59
31 223 -86 171z m93 -38 c20 -16 16 -72 -6 -92 -47 -43 -123 5 -107 68 11 43
75 56 113 24z"/>
<path d="M4144 6295 c-9 -23 4 -47 23 -43 11 2 19 14 21 31 3 22 -1 27 -18 27
-11 0 -23 -7 -26 -15z"/>
<path d="M3900 6335 c0 -11 11 -15 40 -15 29 0 40 4 40 15 0 11 -11 15 -40 15
-29 0 -40 -4 -40 -15z"/>
<path d="M6100 6200 c0 -27 5 -50 10 -50 6 0 10 23 10 50 0 28 -4 50 -10 50
-5 0 -10 -22 -10 -50z"/>
<path d="M6074 6105 c-15 -23 -15 -27 0 -51 23 -33 64 -30 85 8 14 24 14 28
-3 47 -26 29 -62 27 -82 -4z"/>
<path d="M6420 6014 c0 -12 10 -14 47 -12 66 4 70 28 4 28 -39 0 -51 -4 -51
-16z"/>
<path d="M3617 5878 c-33 -26 -38 -63 -13 -110 20 -37 27 -43 55 -43 29 0 34
4 47 40 19 55 17 82 -6 105 -23 23 -58 26 -83 8z"/>
<path d="M6030 5860 c-26 -26 -25 -33 4 -67 21 -24 26 -26 49 -16 14 7 31 21
37 33 9 17 7 24 -14 45 -30 30 -50 31 -76 5z m60 -44 c-7 -9 -20 -16 -30 -16
-21 0 -35 29 -21 43 7 7 12 5 17 -6 9 -25 27 -21 21 5 -6 20 -5 20 10 5 13
-13 14 -19 3 -31z"/>
<path d="M6507 5697 c-20 -18 -37 -37 -37 -44 0 -6 18 -26 41 -44 l40 -32 40
39 39 38 -37 38 c-20 21 -40 38 -43 38 -3 -1 -22 -15 -43 -33z m75 -21 c16
-22 16 -24 -7 -46 l-24 -22 -30 22 c-33 23 -40 40 -16 40 8 0 19 9 25 20 12
23 28 18 52 -14z"/>
<path d="M6532 5658 c6 -18 28 -21 28 -4 0 9 -7 16 -16 16 -9 0 -14 -5 -12
-12z"/>
<path d="M4028 5593 l-118 -4 0 -240 0 -239 168 2 167 3 3 243 2 242 -52 -2
c-29 -1 -106 -4 -170 -5z m180 -40 c-2 -11 -12 -17 -28 -17 -16 0 -26 6 -28
17 -3 13 4 17 28 17 24 0 31 -4 28 -17z m-8 -93 c0 -13 -7 -20 -19 -20 -22 0
-35 15 -26 30 12 19 45 11 45 -10z m-2 -83 c2 -11 -3 -17 -17 -17 -23 0 -35
15 -26 31 10 15 39 6 43 -14z m2 -87 c0 -13 -7 -20 -18 -20 -24 0 -32 8 -25
26 8 22 43 17 43 -6z m-34 -80 c32 0 44 -4 44 -15 0 -12 -14 -15 -65 -15 -47
0 -65 4 -65 13 0 19 12 29 28 22 7 -3 34 -5 58 -5z"/>
<path d="M5980 5281 c0 -230 -3 -225 137 -229 88 -3 101 -2 126 18 24 19 39
62 20 59 -5 -1 -59 -1 -120 0 l-113 1 0 39 0 38 89 -5 c49 -2 101 -2 115 2
l26 6 0 125 0 125 -140 0 -140 0 0 -179z m148 77 c-3 -7 -23 -14 -46 -16 -33
-2 -42 0 -42 12 0 12 11 16 46 16 32 0 44 -4 42 -12z m80 -92 c13 -14 -13 -18
-95 -17 -93 2 -99 3 -88 21 7 11 171 8 183 -4z"/>
<path d="M3614 5029 c-9 -16 -7 -90 4 -101 5 -5 27 -8 48 -6 l39 3 3 49 c2 32
-1 52 -10 57 -19 12 -76 11 -84 -2z m76 -51 c0 -35 -2 -38 -30 -38 -27 0 -29
2 -23 30 4 22 2 30 -8 31 -8 0 -5 4 6 9 41 16 55 8 55 -32z"/>
<path d="M3660 4976 c0 -8 5 -18 10 -21 6 -3 10 3 10 14 0 12 -4 21 -10 21 -5
0 -10 -6 -10 -14z"/>
<path d="M4638 4560 l-508 -5 -32 -32 c-24 -24 -33 -44 -38 -78 l-5 -46 -252
1 c-243 1 -253 0 -253 -18 0 -19 20 -20 698 -27 656 -7 2427 1 2444 11 4 3 4
12 1 20 -5 14 -35 16 -253 13 l-248 -4 -5 42 c-5 51 -28 88 -65 107 -33 17
-672 24 -1484 16z"/>
<path d="M4383 4273 c-106 -2 -193 -7 -193 -11 0 -31 26 -32 741 -32 706 0
790 3 762 31 -11 11 -924 20 -1310 12z"/>
<path d="M5796 4264 c-27 -27 -8 -34 88 -34 71 0 97 4 106 15 16 19 8 22 -97
29 -67 5 -84 3 -97 -10z"/>
<path d="M3201 3533 c-140 -348 -152 -374 -183 -380 -15 -3 -28 -12 -28 -19 0
-11 21 -14 95 -14 89 0 95 1 95 21 0 11 -4 18 -10 14 -17 -10 -60 7 -60 24 0
9 12 44 27 79 l27 62 87 0 87 0 26 -65 c33 -83 33 -91 -4 -98 -18 -4 -30 -13
-30 -22 0 -13 19 -15 115 -15 96 0 115 3 115 15 0 8 -8 15 -17 15 -10 0 -24 4
-31 9 -7 4 -60 125 -117 267 -58 143 -110 260 -118 262 -9 2 -34 -49 -76 -155z
m85 -75 c16 -45 31 -86 32 -90 2 -4 -29 -8 -68 -8 -52 0 -71 3 -68 13 9 34 63
167 69 167 3 0 19 -37 35 -82z"/>
<path d="M3830 3668 c-59 -31 -82 -66 -88 -130 -5 -66 20 -108 93 -155 133
-85 155 -111 141 -166 -10 -42 -44 -67 -91 -67 -55 0 -80 20 -100 80 -12 37
-22 50 -36 50 -18 0 -20 -6 -17 -72 3 -65 5 -73 22 -70 10 2 36 -4 57 -12 122
-49 259 33 259 156 0 54 -37 102 -118 155 -104 66 -132 94 -132 131 0 46 28
72 77 74 51 2 67 -10 89 -68 11 -30 23 -44 35 -44 21 0 24 31 13 101 -6 34 -8
36 -63 47 -78 16 -90 15 -141 -10z"/>
<path d="M4380 3668 c-57 -30 -82 -65 -87 -125 -6 -67 19 -108 96 -161 35 -23
73 -50 85 -60 79 -62 51 -172 -43 -172 -51 0 -93 35 -110 89 -8 30 -17 41 -31
41 -18 0 -20 -7 -20 -70 l0 -70 29 0 c16 0 45 -7 64 -15 78 -33 179 -3 225 65
20 29 23 45 20 91 -5 73 -30 105 -123 163 -41 26 -83 59 -95 73 -42 54 -14
124 52 126 50 1 85 -25 98 -73 8 -29 16 -40 30 -40 16 0 20 7 20 34 0 80 -9
95 -63 111 -68 20 -95 19 -147 -7z"/>
<path d="M5951 3679 c-171 -34 -266 -219 -200 -394 26 -71 55 -104 119 -139
69 -38 156 -45 231 -21 77 26 152 103 175 180 29 101 6 215 -60 292 -54 64
-172 101 -265 82z m135 -60 c21 -13 43 -41 61 -77 25 -51 28 -68 27 -153 0
-81 -4 -103 -25 -145 -29 -60 -77 -94 -131 -94 -71 0 -137 54 -165 134 -20 59
-22 170 -4 233 13 47 53 100 85 113 40 16 117 11 152 -11z"/>
<path d="M2480 3655 c0 -10 10 -15 29 -15 16 0 34 -6 40 -14 8 -9 11 -81 9
-237 l-3 -223 -37 -9 c-22 -5 -38 -15 -38 -23 0 -11 25 -14 130 -14 108 0 130
2 130 15 0 10 -14 17 -40 21 l-40 7 0 97 0 98 64 4 c110 7 176 73 176 177 0
61 -33 105 -88 121 -20 5 -103 10 -184 10 -125 0 -148 -2 -148 -15z m285 -48
c52 -44 42 -162 -15 -192 -16 -8 -43 -15 -60 -15 l-30 0 0 99 c0 55 -3 106 -6
115 -10 27 78 22 111 -7z"/>
<path d="M4780 3656 c0 -8 13 -17 29 -21 34 -7 37 -16 141 -343 50 -158 64
-193 78 -190 15 3 64 130 137 353 4 14 19 -17 51 -110 81 -234 86 -245 103
-245 12 0 37 62 100 248 84 243 108 292 146 292 8 0 15 7 15 15 0 12 -17 15
-90 15 -71 0 -90 -3 -90 -14 0 -8 10 -16 23 -18 14 -2 23 -11 25 -25 3 -20
-78 -287 -97 -322 -5 -8 -30 50 -66 153 -62 177 -62 196 -9 196 15 0 24 6 24
15 0 12 -19 15 -110 15 -91 0 -110 -3 -110 -15 0 -8 5 -15 10 -15 6 0 19 -9
30 -20 30 -30 25 -79 -22 -223 l-43 -128 -52 163 c-29 90 -53 171 -53 181 0
12 10 20 30 24 17 3 30 12 30 19 0 11 -24 14 -115 14 -93 0 -115 -3 -115 -14z"/>
<path d="M6490 3655 c0 -8 9 -15 19 -15 52 0 51 5 51 -245 l0 -233 -35 -6
c-21 -4 -35 -13 -35 -21 0 -12 22 -15 125 -15 116 0 125 1 125 19 0 14 -5 18
-19 14 -10 -3 -28 0 -40 6 -19 11 -21 20 -21 111 0 99 0 100 24 100 19 0 36
-20 91 -105 87 -137 98 -145 191 -145 67 0 74 2 74 20 0 15 -7 20 -26 20 -42
0 -61 16 -130 110 -36 50 -70 90 -75 90 -24 0 -4 27 31 42 58 24 82 68 77 142
-6 105 -54 126 -279 126 -125 0 -148 -2 -148 -15z m287 -40 c12 -8 27 -31 33
-51 27 -82 -22 -154 -106 -154 l-44 0 0 110 0 110 48 0 c26 0 57 -7 69 -15z"/>
<path d="M7160 3656 c0 -9 8 -16 19 -16 52 0 51 5 51 -246 0 -224 -1 -234 -19
-234 -30 0 -51 -11 -51 -27 0 -12 26 -14 178 -10 97 2 193 9 213 15 48 16 125
85 151 135 68 134 9 309 -124 368 -48 21 -70 24 -235 27 -162 3 -183 2 -183
-12z m321 -38 c86 -29 129 -91 137 -198 10 -153 -60 -247 -193 -258 -98 -8
-95 -15 -95 243 l0 225 59 0 c32 0 73 -5 92 -12z"/>
</g>
</svg>
